<?xml version="1.0" encoding="utf-8"?>
<!-- Generator: Adobe Illustrator 16.0.4, SVG Export Plug-In . SVG Version: 6.00 Build 0)  -->
<!DOCTYPE svg PUBLIC "-//W3C//DTD SVG 1.1//EN" "http://www.w3.org/Graphics/SVG/1.1/DTD/svg11.dtd">
<svg version="1.1" id="Layer_1" xmlns="http://www.w3.org/2000/svg" xmlns:xlink="http://www.w3.org/1999/xlink" x="0px" y="0px"
	 width="576px" height="113px" viewBox="0 0 576 113" enable-background="new 0 0 576 113" xml:space="preserve">
<g>
	<g>
		<g>
			<g>
				<path fill="#27AAE1" d="M500,20.027c0,0-0.882,1.377-2.559,3.998c-0.845,1.309-1.854,2.958-3.23,4.776
					c-0.671,0.923-1.394,1.917-2.166,2.98c-0.391,0.529-0.78,1.087-1.207,1.642c-0.443,0.542-0.899,1.1-1.369,1.674
					c-0.942,1.149-1.938,2.362-2.983,3.638c-1.051,1.274-2.271,2.504-3.484,3.85c-0.614,0.666-1.242,1.347-1.884,2.042
					c-0.638,0.699-1.36,1.339-2.059,2.033c-1.429,1.351-2.855,2.827-4.449,4.225c-6.274,5.709-14.096,11.527-23.429,16.851
					c-9.353,5.277-20.276,9.915-32.464,13.374c-1.513,0.476-3.066,0.839-4.63,1.222c-1.565,0.375-3.139,0.785-4.736,1.14
					c-3.212,0.605-6.459,1.366-9.802,1.814c-6.658,1.128-13.586,1.71-20.692,2.1c-7.112,0.329-14.41,0.221-21.849-0.161
					c-7.429-0.496-14.993-1.303-22.634-2.51c-7.631-1.263-15.34-2.866-23.074-4.847c-7.712-2.039-15.456-4.436-23.217-7.227
					c-1.885-0.707-3.765-1.412-5.639-2.115c-1.881-0.738-3.755-1.475-5.624-2.208c-3.674-1.425-7.328-2.831-10.979-4.151
					c-7.297-2.659-14.532-5.147-21.708-7.355c-7.175-2.206-14.272-4.194-21.272-5.923c-7.008-1.682-13.909-3.146-20.684-4.303
					c-13.551-2.246-26.592-3.429-38.77-3.135c-6.097,0.041-11.947,0.625-17.56,1.284c-5.577,0.853-10.929,1.808-15.91,3.216
					c-10.003,2.678-18.683,6.439-25.851,10.554c-0.9,0.51-1.786,1.011-2.655,1.503c-0.834,0.549-1.653,1.088-2.456,1.617
					c-1.592,1.08-3.205,2.017-4.583,3.141c-1.418,1.076-2.775,2.106-4.069,3.088c-1.261,1.024-2.398,2.074-3.512,3.028
					c-2.27,1.875-4.052,3.768-5.662,5.36c-0.793,0.808-1.563,1.52-2.204,2.233c-0.633,0.722-1.207,1.376-1.72,1.961
					c-2.056,2.335-3.136,3.562-3.136,3.562s0.972-1.313,2.823-3.814c0.464-0.624,0.983-1.322,1.555-2.094
					c0.582-0.763,1.297-1.539,2.03-2.414c1.493-1.729,3.162-3.795,5.307-5.853c1.054-1.048,2.131-2.197,3.336-3.329
					c1.244-1.092,2.549-2.237,3.912-3.433c1.331-1.246,2.9-2.312,4.457-3.527c0.788-0.597,1.59-1.206,2.408-1.826
					c0.857-0.563,1.73-1.137,2.618-1.721c7.083-4.706,15.827-9.156,26.063-12.513c20.453-6.952,46.719-8.57,74.771-4.682
					c7.021,0.973,14.163,2.28,21.406,3.833c7.231,1.6,14.549,3.487,21.931,5.621c7.382,2.137,14.804,4.582,22.271,7.229
					c3.737,1.315,7.469,2.721,11.217,4.156c1.836,0.714,3.678,1.431,5.526,2.149c1.875,0.701,3.755,1.404,5.641,2.11
					c29.669,10.766,59.907,16.05,87.258,15.613c6.835-0.162,13.513-0.484,19.938-1.327c3.231-0.306,6.363-0.916,9.478-1.368
					c1.547-0.277,3.069-0.608,4.588-0.904c1.518-0.303,3.027-0.586,4.496-0.979c11.841-2.805,22.562-6.724,31.873-11.318
					c9.288-4.639,17.228-9.812,23.714-14.984c1.646-1.263,3.13-2.61,4.621-3.839c0.729-0.632,1.484-1.213,2.155-1.854
					c0.675-0.637,1.337-1.262,1.984-1.874c1.282-1.236,2.572-2.364,3.695-3.542c1.123-1.181,2.19-2.305,3.201-3.37
					c0.508-0.533,1-1.05,1.479-1.553c0.463-0.516,0.889-1.037,1.314-1.531c0.847-0.993,1.638-1.922,2.373-2.784
					c1.509-1.698,2.64-3.25,3.585-4.482C499.006,21.324,500,20.027,500,20.027z"/>
			</g>
		</g>
	</g>
	<g>
		<g>
			<path d="M410.029,69.248l1.415-8.065h23.761c1.071-0.471,2.128-0.952,3.164-1.445c6.633-3.099,12.562-6.547,17.812-10.035
				h-42.637l5.04-28.561h53.76l5.601-11.48h-70l-10.851,61.815C401.538,70.906,405.854,70.156,410.029,69.248z"/>
			<path fill="#27AAE1" d="M406.466,89.545c-4.227,1.243-8.602,2.312-13.105,3.2l-2.496,14.218h69.58l1.96-11.48h-56.98
				L406.466,89.545z"/>
		</g>
		<g>
			<path d="M369.497,72.65l11.147-62.988h-12.601l-11.021,62.125C361.235,72.195,365.397,72.487,369.497,72.65z"/>
			<path d="M306.864,61.219l6.02-33.916l17.749,40.235c1.271,0.28,2.541,0.561,3.806,0.824c4.049,0.818,8.063,1.499,12.045,2.094
				l-27.02-60.793h-16.1l-8.425,47.604C298.853,58.644,302.854,59.968,306.864,61.219z"/>
			<path fill="#27AAE1" d="M290.208,83.996l-4.064,22.967h12.601l3.429-19.317C298.196,86.531,294.227,85.327,290.208,83.996z"/>
			<path fill="#27AAE1" d="M352.555,95.812c-3.223-0.148-6.475-0.375-9.741-0.661l5.211,11.812h15.4l1.968-11.118
				C361.164,95.964,356.886,95.965,352.555,95.812z"/>
		</g>
		<g>
			<path d="M229.209,35.88c2.67,0.595,5.346,1.254,8.025,1.942l4.391-8.108l4.48-10.951l0.7,10.672l2.525,11.745
				c0.43,0.128,0.859,0.249,1.289,0.378c4.181,1.259,8.373,2.61,12.568,4.03l-7.702-35.924h-15.68l-14.006,25.481
				C226.935,35.387,228.069,35.625,229.209,35.88z"/>
			<path fill="#27AAE1" d="M262.83,73.562c-5.656-2.231-11.24-4.35-16.759-6.359h-24.747l3.847-7.104
				c-0.723-0.224-1.448-0.456-2.168-0.673c-3.06-0.924-6.093-1.809-9.101-2.638l-27.577,50.174h13.44l15.96-29.4h41.3l6.16,29.4
				h13.16l-6.57-30.645C267.449,75.389,265.131,74.469,262.83,73.562z"/>
		</g>
		<g>
			<path d="M137.656,37.395c1.311-0.437,2.636-0.877,3.976-1.323c0.673-0.221,1.351-0.442,2.031-0.665
				c0.688-0.185,1.381-0.371,2.077-0.558c0.786-0.208,1.586-0.421,2.381-0.631l4.326-24.555h-12.6l-5.109,28.867
				C135.697,38.139,136.662,37.739,137.656,37.395z"/>
			<path fill="#27AAE1" d="M145.287,50.299c-0.081,0.014-0.163,0.027-0.244,0.04c-1.224,0.198-2.435,0.394-3.632,0.587
				c-1.197,0.204-2.351,0.509-3.513,0.751c-1.97,0.435-3.878,0.93-5.745,1.459l-9.526,53.827h57.12l5.6-11.48h-48.02L145.287,50.299
				z"/>
		</g>
	</g>
</g>
<g>
	<path d="M83.75,12.775v18.39h-2.7v-18.39h-6.96v-2.46h16.59l-0.78,2.46H83.75z"/>
	<path d="M95.42,21.355v9.81h-2.7v-20.85h2.7v8.58h10.98v-8.58h2.7v20.85h-2.7v-9.81H95.42z"/>
	<path d="M127.64,31.165h-14.91v-20.85h15l-0.78,2.46h-11.52v6.12h10.32v2.46h-10.32v7.35h12.21V31.165z"/>
</g>
</svg>
